# xmcd
#
# Track frame offsets:
#	150
#	10364
#	31057
#	47678
#	65615
#	82043
#	96457
#	114981
#	127105
#
# Disc length: 1872 seconds
#
# Revision: 0
# Processed by: cddbd v1.5PL3 Copyright (c) Steve Scherf et al.
# Submitted via: dBpowerAMP V4.0
#
DISCID=76074e09
DTITLE=Curtis Edmund - Wanted Man
DYEAR=2002
DGENRE=Country
TTITLE0=Lonetree Saloon
TTITLE1=Wanted Man
TTITLE2=Snowy Range
TTITLE3=Caroline On My Mind
TTITLE4=Where Armadillos Are
TTITLE5=Amber Moon
TTITLE6=Our Enchanted Hometown
TTITLE7=Keep A-goin'
TTITLE8=This Old Friend
EXTD=Excellent Album
EXTT0=
EXTT1=
EXTT2=
EXTT3=
EXTT4=
EXTT5=
EXTT6=
EXTT7=
EXTT8=
PLAYORDER=
